<mxfile host="app.diagrams.net" agent="Mozilla/5.0 (Windows NT 10.0; Win64; x64) AppleWebKit/537.36 (KHTML, like Gecko) Chrome/139.0.0.0 Safari/537.36" version="28.1.1">
  <diagram name="Página-1" id="0XIS9OoBPyBi41irD96R">
    <mxGraphModel dx="1426" dy="1946" grid="1" gridSize="10" guides="1" tooltips="1" connect="1" arrows="1" fold="1" page="1" pageScale="1" pageWidth="827" pageHeight="1169" math="0" shadow="0">
      <root>
        <mxCell id="0" />
        <mxCell id="1" parent="0" />
        <mxCell id="buAC3kS2UtGZYUuOttZp-2" style="edgeStyle=orthogonalEdgeStyle;rounded=0;orthogonalLoop=1;jettySize=auto;html=1;exitX=1;exitY=0.5;exitDx=0;exitDy=0;exitPerimeter=0;" edge="1" parent="1" source="buAC3kS2UtGZYUuOttZp-1">
          <mxGeometry relative="1" as="geometry">
            <mxPoint x="280" y="230" as="targetPoint" />
          </mxGeometry>
        </mxCell>
        <mxCell id="buAC3kS2UtGZYUuOttZp-1" value="Inicio" style="strokeWidth=2;html=1;shape=mxgraph.flowchart.start_1;whiteSpace=wrap;" vertex="1" parent="1">
          <mxGeometry x="100" y="200" width="100" height="60" as="geometry" />
        </mxCell>
        <mxCell id="buAC3kS2UtGZYUuOttZp-4" style="edgeStyle=orthogonalEdgeStyle;rounded=0;orthogonalLoop=1;jettySize=auto;html=1;exitX=1;exitY=0.5;exitDx=0;exitDy=0;" edge="1" parent="1" source="buAC3kS2UtGZYUuOttZp-3">
          <mxGeometry relative="1" as="geometry">
            <mxPoint x="470" y="230" as="targetPoint" />
          </mxGeometry>
        </mxCell>
        <mxCell id="buAC3kS2UtGZYUuOttZp-3" value="Confirmar o período de atendimento da biblioteca." style="rounded=0;whiteSpace=wrap;html=1;" vertex="1" parent="1">
          <mxGeometry x="270" y="200" width="120" height="60" as="geometry" />
        </mxCell>
        <mxCell id="buAC3kS2UtGZYUuOttZp-8" style="edgeStyle=orthogonalEdgeStyle;rounded=0;orthogonalLoop=1;jettySize=auto;html=1;exitX=1;exitY=0.5;exitDx=0;exitDy=0;" edge="1" parent="1" source="buAC3kS2UtGZYUuOttZp-7">
          <mxGeometry relative="1" as="geometry">
            <mxPoint x="670" y="230" as="targetPoint" />
          </mxGeometry>
        </mxCell>
        <mxCell id="buAC3kS2UtGZYUuOttZp-9" value="SIm" style="edgeLabel;html=1;align=center;verticalAlign=middle;resizable=0;points=[];" vertex="1" connectable="0" parent="buAC3kS2UtGZYUuOttZp-8">
          <mxGeometry x="0.0724" y="-4" relative="1" as="geometry">
            <mxPoint as="offset" />
          </mxGeometry>
        </mxCell>
        <mxCell id="buAC3kS2UtGZYUuOttZp-10" style="edgeStyle=orthogonalEdgeStyle;rounded=0;orthogonalLoop=1;jettySize=auto;html=1;exitX=0.5;exitY=1;exitDx=0;exitDy=0;" edge="1" parent="1" source="buAC3kS2UtGZYUuOttZp-7">
          <mxGeometry relative="1" as="geometry">
            <mxPoint x="540" y="350" as="targetPoint" />
          </mxGeometry>
        </mxCell>
        <mxCell id="buAC3kS2UtGZYUuOttZp-11" value="Não" style="edgeLabel;html=1;align=center;verticalAlign=middle;resizable=0;points=[];" vertex="1" connectable="0" parent="buAC3kS2UtGZYUuOttZp-10">
          <mxGeometry x="-0.103" y="5" relative="1" as="geometry">
            <mxPoint y="1" as="offset" />
          </mxGeometry>
        </mxCell>
        <mxCell id="buAC3kS2UtGZYUuOttZp-7" value="Está em horario de funcionamento?" style="rhombus;whiteSpace=wrap;html=1;" vertex="1" parent="1">
          <mxGeometry x="470" y="177.5" width="140" height="105" as="geometry" />
        </mxCell>
        <mxCell id="buAC3kS2UtGZYUuOttZp-17" style="edgeStyle=orthogonalEdgeStyle;rounded=0;orthogonalLoop=1;jettySize=auto;html=1;exitX=0.5;exitY=0;exitDx=0;exitDy=0;" edge="1" parent="1" source="buAC3kS2UtGZYUuOttZp-12">
          <mxGeometry relative="1" as="geometry">
            <mxPoint x="730" y="130" as="targetPoint" />
          </mxGeometry>
        </mxCell>
        <mxCell id="buAC3kS2UtGZYUuOttZp-12" value="Pesquisar site da Biblioteca" style="rounded=0;whiteSpace=wrap;html=1;" vertex="1" parent="1">
          <mxGeometry x="670" y="200" width="120" height="60" as="geometry" />
        </mxCell>
        <mxCell id="buAC3kS2UtGZYUuOttZp-14" style="edgeStyle=orthogonalEdgeStyle;rounded=0;orthogonalLoop=1;jettySize=auto;html=1;exitX=1;exitY=0.5;exitDx=0;exitDy=0;entryX=0.5;entryY=1;entryDx=0;entryDy=0;" edge="1" parent="1" source="buAC3kS2UtGZYUuOttZp-13" target="buAC3kS2UtGZYUuOttZp-12">
          <mxGeometry relative="1" as="geometry" />
        </mxCell>
        <mxCell id="buAC3kS2UtGZYUuOttZp-13" value="Ir na biblioteca quando estiver em funcionamento" style="rounded=0;whiteSpace=wrap;html=1;" vertex="1" parent="1">
          <mxGeometry x="480" y="350" width="120" height="60" as="geometry" />
        </mxCell>
        <mxCell id="buAC3kS2UtGZYUuOttZp-27" style="edgeStyle=orthogonalEdgeStyle;rounded=0;orthogonalLoop=1;jettySize=auto;html=1;exitX=0.5;exitY=0;exitDx=0;exitDy=0;" edge="1" parent="1" source="buAC3kS2UtGZYUuOttZp-26">
          <mxGeometry relative="1" as="geometry">
            <mxPoint x="730" y="-40" as="targetPoint" />
          </mxGeometry>
        </mxCell>
        <mxCell id="buAC3kS2UtGZYUuOttZp-33" value="Sim" style="edgeLabel;html=1;align=center;verticalAlign=middle;resizable=0;points=[];" vertex="1" connectable="0" parent="buAC3kS2UtGZYUuOttZp-27">
          <mxGeometry x="-0.01" y="-1" relative="1" as="geometry">
            <mxPoint x="1" as="offset" />
          </mxGeometry>
        </mxCell>
        <mxCell id="buAC3kS2UtGZYUuOttZp-28" style="edgeStyle=orthogonalEdgeStyle;rounded=0;orthogonalLoop=1;jettySize=auto;html=1;exitX=1;exitY=0.5;exitDx=0;exitDy=0;" edge="1" parent="1" source="buAC3kS2UtGZYUuOttZp-26">
          <mxGeometry relative="1" as="geometry">
            <mxPoint x="870" y="70" as="targetPoint" />
          </mxGeometry>
        </mxCell>
        <mxCell id="buAC3kS2UtGZYUuOttZp-29" value="Não" style="edgeLabel;html=1;align=center;verticalAlign=middle;resizable=0;points=[];" vertex="1" connectable="0" parent="buAC3kS2UtGZYUuOttZp-28">
          <mxGeometry x="-0.0199" relative="1" as="geometry">
            <mxPoint as="offset" />
          </mxGeometry>
        </mxCell>
        <mxCell id="buAC3kS2UtGZYUuOttZp-26" value="Está cadastrado na biblioteca ?" style="rhombus;whiteSpace=wrap;html=1;" vertex="1" parent="1">
          <mxGeometry x="665" y="10" width="130" height="120" as="geometry" />
        </mxCell>
        <mxCell id="buAC3kS2UtGZYUuOttZp-30" value="Levar documentos necessários para cadastro&amp;nbsp;" style="rounded=0;whiteSpace=wrap;html=1;" vertex="1" parent="1">
          <mxGeometry x="870" y="40" width="120" height="60" as="geometry" />
        </mxCell>
        <mxCell id="buAC3kS2UtGZYUuOttZp-34" style="edgeStyle=orthogonalEdgeStyle;rounded=0;orthogonalLoop=1;jettySize=auto;html=1;exitX=0;exitY=0.5;exitDx=0;exitDy=0;entryX=0.5;entryY=1;entryDx=0;entryDy=0;entryPerimeter=0;" edge="1" parent="1" source="buAC3kS2UtGZYUuOttZp-32" target="buAC3kS2UtGZYUuOttZp-45">
          <mxGeometry relative="1" as="geometry">
            <mxPoint x="620" y="-90" as="targetPoint" />
          </mxGeometry>
        </mxCell>
        <mxCell id="buAC3kS2UtGZYUuOttZp-35" value="Sim" style="edgeLabel;html=1;align=center;verticalAlign=middle;resizable=0;points=[];" vertex="1" connectable="0" parent="buAC3kS2UtGZYUuOttZp-34">
          <mxGeometry x="-0.3154" y="-2" relative="1" as="geometry">
            <mxPoint as="offset" />
          </mxGeometry>
        </mxCell>
        <mxCell id="buAC3kS2UtGZYUuOttZp-36" style="edgeStyle=orthogonalEdgeStyle;rounded=0;orthogonalLoop=1;jettySize=auto;html=1;exitX=1;exitY=0.5;exitDx=0;exitDy=0;" edge="1" parent="1" source="buAC3kS2UtGZYUuOttZp-32">
          <mxGeometry relative="1" as="geometry">
            <mxPoint x="850" y="-90" as="targetPoint" />
          </mxGeometry>
        </mxCell>
        <mxCell id="buAC3kS2UtGZYUuOttZp-37" value="Não" style="edgeLabel;html=1;align=center;verticalAlign=middle;resizable=0;points=[];" vertex="1" connectable="0" parent="buAC3kS2UtGZYUuOttZp-36">
          <mxGeometry x="-0.084" y="1" relative="1" as="geometry">
            <mxPoint as="offset" />
          </mxGeometry>
        </mxCell>
        <mxCell id="buAC3kS2UtGZYUuOttZp-32" value="Pendencias" style="rhombus;whiteSpace=wrap;html=1;" vertex="1" parent="1">
          <mxGeometry x="675" y="-140" width="110" height="100" as="geometry" />
        </mxCell>
        <mxCell id="buAC3kS2UtGZYUuOttZp-41" style="edgeStyle=orthogonalEdgeStyle;rounded=0;orthogonalLoop=1;jettySize=auto;html=1;exitX=0.5;exitY=0;exitDx=0;exitDy=0;" edge="1" parent="1" source="buAC3kS2UtGZYUuOttZp-38">
          <mxGeometry relative="1" as="geometry">
            <mxPoint x="910" y="-180" as="targetPoint" />
          </mxGeometry>
        </mxCell>
        <mxCell id="buAC3kS2UtGZYUuOttZp-38" value="Localizar Livro" style="rounded=0;whiteSpace=wrap;html=1;" vertex="1" parent="1">
          <mxGeometry x="850" y="-120" width="120" height="60" as="geometry" />
        </mxCell>
        <mxCell id="buAC3kS2UtGZYUuOttZp-43" style="edgeStyle=orthogonalEdgeStyle;rounded=0;orthogonalLoop=1;jettySize=auto;html=1;exitX=0;exitY=0.5;exitDx=0;exitDy=0;entryX=0.5;entryY=0;entryDx=0;entryDy=0;entryPerimeter=0;" edge="1" parent="1" source="buAC3kS2UtGZYUuOttZp-42" target="buAC3kS2UtGZYUuOttZp-45">
          <mxGeometry relative="1" as="geometry">
            <mxPoint x="630" y="-230" as="targetPoint" />
          </mxGeometry>
        </mxCell>
        <mxCell id="buAC3kS2UtGZYUuOttZp-44" value="Não" style="edgeLabel;html=1;align=center;verticalAlign=middle;resizable=0;points=[];" vertex="1" connectable="0" parent="buAC3kS2UtGZYUuOttZp-43">
          <mxGeometry x="-0.1929" y="-2" relative="1" as="geometry">
            <mxPoint as="offset" />
          </mxGeometry>
        </mxCell>
        <mxCell id="buAC3kS2UtGZYUuOttZp-46" style="edgeStyle=orthogonalEdgeStyle;rounded=0;orthogonalLoop=1;jettySize=auto;html=1;exitX=0.5;exitY=0;exitDx=0;exitDy=0;" edge="1" parent="1" source="buAC3kS2UtGZYUuOttZp-42">
          <mxGeometry relative="1" as="geometry">
            <mxPoint x="910" y="-340" as="targetPoint" />
          </mxGeometry>
        </mxCell>
        <mxCell id="buAC3kS2UtGZYUuOttZp-47" value="Sim" style="edgeLabel;html=1;align=center;verticalAlign=middle;resizable=0;points=[];" vertex="1" connectable="0" parent="buAC3kS2UtGZYUuOttZp-46">
          <mxGeometry x="-0.0249" y="1" relative="1" as="geometry">
            <mxPoint y="-2" as="offset" />
          </mxGeometry>
        </mxCell>
        <mxCell id="buAC3kS2UtGZYUuOttZp-42" value="Livro disponível?" style="rhombus;whiteSpace=wrap;html=1;" vertex="1" parent="1">
          <mxGeometry x="855" y="-280" width="110" height="100" as="geometry" />
        </mxCell>
        <mxCell id="buAC3kS2UtGZYUuOttZp-45" value="FIm" style="strokeWidth=2;html=1;shape=mxgraph.flowchart.start_1;whiteSpace=wrap;" vertex="1" parent="1">
          <mxGeometry x="490" y="-200" width="100" height="60" as="geometry" />
        </mxCell>
        <mxCell id="buAC3kS2UtGZYUuOttZp-50" style="edgeStyle=orthogonalEdgeStyle;rounded=0;orthogonalLoop=1;jettySize=auto;html=1;exitX=0;exitY=0.5;exitDx=0;exitDy=0;entryX=1;entryY=0.5;entryDx=0;entryDy=0;" edge="1" parent="1" source="buAC3kS2UtGZYUuOttZp-48" target="buAC3kS2UtGZYUuOttZp-49">
          <mxGeometry relative="1" as="geometry" />
        </mxCell>
        <mxCell id="buAC3kS2UtGZYUuOttZp-48" value="Pedir ajuda ao bibliotecario para pegar o livro, apresentando a carteirinha&amp;nbsp;" style="rounded=0;whiteSpace=wrap;html=1;" vertex="1" parent="1">
          <mxGeometry x="840" y="-410" width="140" height="70" as="geometry" />
        </mxCell>
        <mxCell id="buAC3kS2UtGZYUuOttZp-51" style="edgeStyle=orthogonalEdgeStyle;rounded=0;orthogonalLoop=1;jettySize=auto;html=1;exitX=0;exitY=0.5;exitDx=0;exitDy=0;" edge="1" parent="1" source="buAC3kS2UtGZYUuOttZp-49" target="buAC3kS2UtGZYUuOttZp-52">
          <mxGeometry relative="1" as="geometry">
            <mxPoint x="580" y="-375" as="targetPoint" />
          </mxGeometry>
        </mxCell>
        <mxCell id="buAC3kS2UtGZYUuOttZp-49" value="Pegar Livro desejado e se informar da data de devolução" style="rounded=0;whiteSpace=wrap;html=1;" vertex="1" parent="1">
          <mxGeometry x="640" y="-410" width="120" height="70" as="geometry" />
        </mxCell>
        <mxCell id="buAC3kS2UtGZYUuOttZp-53" style="edgeStyle=orthogonalEdgeStyle;rounded=0;orthogonalLoop=1;jettySize=auto;html=1;exitX=0;exitY=0.5;exitDx=0;exitDy=0;" edge="1" parent="1" source="buAC3kS2UtGZYUuOttZp-52">
          <mxGeometry relative="1" as="geometry">
            <mxPoint x="410" y="-375" as="targetPoint" />
          </mxGeometry>
        </mxCell>
        <mxCell id="buAC3kS2UtGZYUuOttZp-52" value="se organizar para realizar a leitura do livro" style="rounded=0;whiteSpace=wrap;html=1;" vertex="1" parent="1">
          <mxGeometry x="460" y="-407.5" width="120" height="65" as="geometry" />
        </mxCell>
        <mxCell id="buAC3kS2UtGZYUuOttZp-57" style="edgeStyle=orthogonalEdgeStyle;rounded=0;orthogonalLoop=1;jettySize=auto;html=1;exitX=0.5;exitY=1;exitDx=0;exitDy=0;" edge="1" parent="1" source="buAC3kS2UtGZYUuOttZp-54">
          <mxGeometry relative="1" as="geometry">
            <mxPoint x="326" y="-240" as="targetPoint" />
          </mxGeometry>
        </mxCell>
        <mxCell id="buAC3kS2UtGZYUuOttZp-58" value="Não" style="edgeLabel;html=1;align=center;verticalAlign=middle;resizable=0;points=[];" vertex="1" connectable="0" parent="buAC3kS2UtGZYUuOttZp-57">
          <mxGeometry x="-0.265" relative="1" as="geometry">
            <mxPoint as="offset" />
          </mxGeometry>
        </mxCell>
        <mxCell id="buAC3kS2UtGZYUuOttZp-74" style="edgeStyle=orthogonalEdgeStyle;rounded=0;orthogonalLoop=1;jettySize=auto;html=1;exitX=1;exitY=1;exitDx=0;exitDy=0;" edge="1" parent="1">
          <mxGeometry relative="1" as="geometry">
            <mxPoint x="340" y="-310" as="sourcePoint" />
            <mxPoint x="510" y="-200" as="targetPoint" />
          </mxGeometry>
        </mxCell>
        <mxCell id="buAC3kS2UtGZYUuOttZp-75" value="Sim" style="edgeLabel;html=1;align=center;verticalAlign=middle;resizable=0;points=[];" vertex="1" connectable="0" parent="buAC3kS2UtGZYUuOttZp-74">
          <mxGeometry x="-0.4071" y="-2" relative="1" as="geometry">
            <mxPoint as="offset" />
          </mxGeometry>
        </mxCell>
        <mxCell id="buAC3kS2UtGZYUuOttZp-54" value="A leitura foi concluída pelo usuário até a data prevista." style="rhombus;whiteSpace=wrap;html=1;" vertex="1" parent="1">
          <mxGeometry x="237" y="-452.5" width="177" height="155" as="geometry" />
        </mxCell>
        <mxCell id="buAC3kS2UtGZYUuOttZp-61" style="edgeStyle=orthogonalEdgeStyle;rounded=0;orthogonalLoop=1;jettySize=auto;html=1;exitX=0.5;exitY=1;exitDx=0;exitDy=0;entryX=0.5;entryY=0;entryDx=0;entryDy=0;" edge="1" parent="1" source="buAC3kS2UtGZYUuOttZp-60" target="buAC3kS2UtGZYUuOttZp-62">
          <mxGeometry relative="1" as="geometry">
            <mxPoint x="326" y="-120" as="targetPoint" />
          </mxGeometry>
        </mxCell>
        <mxCell id="buAC3kS2UtGZYUuOttZp-60" value="Verifique se pode ser renovado ou devolva" style="rounded=0;whiteSpace=wrap;html=1;" vertex="1" parent="1">
          <mxGeometry x="265.5" y="-240" width="120" height="60" as="geometry" />
        </mxCell>
        <mxCell id="buAC3kS2UtGZYUuOttZp-63" style="edgeStyle=orthogonalEdgeStyle;rounded=0;orthogonalLoop=1;jettySize=auto;html=1;exitX=0.5;exitY=1;exitDx=0;exitDy=0;" edge="1" parent="1" source="buAC3kS2UtGZYUuOttZp-62">
          <mxGeometry relative="1" as="geometry">
            <mxPoint x="325" y="30" as="targetPoint" />
          </mxGeometry>
        </mxCell>
        <mxCell id="buAC3kS2UtGZYUuOttZp-64" value="SIm" style="edgeLabel;html=1;align=center;verticalAlign=middle;resizable=0;points=[];" vertex="1" connectable="0" parent="buAC3kS2UtGZYUuOttZp-63">
          <mxGeometry x="0.0082" y="4" relative="1" as="geometry">
            <mxPoint y="-1" as="offset" />
          </mxGeometry>
        </mxCell>
        <mxCell id="buAC3kS2UtGZYUuOttZp-69" style="edgeStyle=orthogonalEdgeStyle;rounded=0;orthogonalLoop=1;jettySize=auto;html=1;exitX=1;exitY=0.5;exitDx=0;exitDy=0;entryX=0;entryY=0.5;entryDx=0;entryDy=0;" edge="1" parent="1" source="buAC3kS2UtGZYUuOttZp-62" target="buAC3kS2UtGZYUuOttZp-68">
          <mxGeometry relative="1" as="geometry" />
        </mxCell>
        <mxCell id="buAC3kS2UtGZYUuOttZp-71" value="Não" style="edgeLabel;html=1;align=center;verticalAlign=middle;resizable=0;points=[];" vertex="1" connectable="0" parent="buAC3kS2UtGZYUuOttZp-69">
          <mxGeometry x="-0.32" y="-2" relative="1" as="geometry">
            <mxPoint as="offset" />
          </mxGeometry>
        </mxCell>
        <mxCell id="buAC3kS2UtGZYUuOttZp-62" value="Pode ser renovado?" style="rhombus;whiteSpace=wrap;html=1;" vertex="1" parent="1">
          <mxGeometry x="160" y="-135" width="110" height="90" as="geometry" />
        </mxCell>
        <mxCell id="buAC3kS2UtGZYUuOttZp-76" style="edgeStyle=orthogonalEdgeStyle;rounded=0;orthogonalLoop=1;jettySize=auto;html=1;exitX=1;exitY=0.5;exitDx=0;exitDy=0;" edge="1" parent="1" source="buAC3kS2UtGZYUuOttZp-65">
          <mxGeometry relative="1" as="geometry">
            <mxPoint x="440" y="60" as="targetPoint" />
          </mxGeometry>
        </mxCell>
        <mxCell id="buAC3kS2UtGZYUuOttZp-65" value="Renove e continue a leitura" style="rounded=0;whiteSpace=wrap;html=1;" vertex="1" parent="1">
          <mxGeometry x="265" y="30" width="120" height="60" as="geometry" />
        </mxCell>
        <mxCell id="buAC3kS2UtGZYUuOttZp-68" value="Devolva a biblioteca" style="rounded=0;whiteSpace=wrap;html=1;" vertex="1" parent="1">
          <mxGeometry x="320" y="-115" width="100" height="50" as="geometry" />
        </mxCell>
        <mxCell id="buAC3kS2UtGZYUuOttZp-72" style="edgeStyle=orthogonalEdgeStyle;rounded=0;orthogonalLoop=1;jettySize=auto;html=1;exitX=1;exitY=0.5;exitDx=0;exitDy=0;entryX=0;entryY=0.5;entryDx=0;entryDy=0;entryPerimeter=0;" edge="1" parent="1" source="buAC3kS2UtGZYUuOttZp-68" target="buAC3kS2UtGZYUuOttZp-45">
          <mxGeometry relative="1" as="geometry" />
        </mxCell>
        <mxCell id="buAC3kS2UtGZYUuOttZp-77" value="Apos terminar devolva" style="rounded=0;whiteSpace=wrap;html=1;" vertex="1" parent="1">
          <mxGeometry x="430" y="30" width="120" height="60" as="geometry" />
        </mxCell>
        <mxCell id="buAC3kS2UtGZYUuOttZp-78" style="edgeStyle=orthogonalEdgeStyle;rounded=0;orthogonalLoop=1;jettySize=auto;html=1;exitX=0.5;exitY=0;exitDx=0;exitDy=0;entryX=0.21;entryY=0.967;entryDx=0;entryDy=0;entryPerimeter=0;" edge="1" parent="1" source="buAC3kS2UtGZYUuOttZp-77" target="buAC3kS2UtGZYUuOttZp-45">
          <mxGeometry relative="1" as="geometry" />
        </mxCell>
        <mxCell id="buAC3kS2UtGZYUuOttZp-79" style="edgeStyle=orthogonalEdgeStyle;rounded=0;orthogonalLoop=1;jettySize=auto;html=1;exitX=0.5;exitY=0;exitDx=0;exitDy=0;entryX=0.855;entryY=0.71;entryDx=0;entryDy=0;entryPerimeter=0;" edge="1" parent="1" source="buAC3kS2UtGZYUuOttZp-30" target="buAC3kS2UtGZYUuOttZp-32">
          <mxGeometry relative="1" as="geometry" />
        </mxCell>
      </root>
    </mxGraphModel>
  </diagram>
</mxfile>
